<svg width="71" height="71" viewBox="0 0 71 71" fill="none" xmlns="http://www.w3.org/2000/svg">
<circle cx="35.5" cy="35.5" r="35.5" fill="#4679A9"/>
<path fill-rule="evenodd" clip-rule="evenodd" d="M20.5149 20.5149C22.3812 18.6487 25.407 18.6487 27.2732 20.5149L35.4999 28.7415L43.7265 20.5149C45.5927 18.6487 48.6185 18.6487 50.4848 20.5149C52.351 22.3812 52.351 25.407 50.4848 27.2732L42.2582 35.4998L50.4848 43.7265C52.351 45.5927 52.351 48.6185 50.4848 50.4848C48.6185 52.351 45.5927 52.351 43.7265 50.4848L35.4999 42.2582L27.2732 50.4848C25.407 52.351 22.3812 52.351 20.5149 50.4848C18.6487 48.6185 18.6487 45.5927 20.5149 43.7265L28.7415 35.4998L20.5149 27.2732C18.6487 25.407 18.6487 22.3812 20.5149 20.5149Z" fill="#ECF2FE"/>
</svg>
