<svg width="101" height="101" viewBox="0 0 101 101" fill="none" xmlns="http://www.w3.org/2000/svg">
<path fill-rule="evenodd" clip-rule="evenodd" d="M50.5 101C78.3904 101 101 78.3904 101 50.5C101 22.6096 78.3904 0 50.5 0C22.6096 0 0 22.6096 0 50.5C0 78.3904 22.6096 101 50.5 101ZM58.0548 31.8417C59.7907 22.3406 55.9397 18.557 46.5018 20.4903C44.9021 21.414 43.8161 22.8078 43.2432 24.6724C41.9238 34.2882 45.9721 37.7737 55.3887 35.1276C56.0712 33.8437 56.9599 32.7486 58.0548 31.8417ZM27.4644 41.4007C42.475 41.3009 57.4838 41.4007 72.4914 41.6994C75.5746 42.3871 77.7465 43.8807 79.0085 46.1802C78.9883 48.4887 78.9883 50.7787 79.0085 53.0508C77.7791 54.6376 76.0017 56.0314 73.6763 57.2329C57.8772 57.6314 42.0786 57.6314 26.2794 57.2329C21.1298 54.95 19.7475 50.9669 22.1322 45.2841L21.5397 44.6866C22.608 44.3061 23.3977 43.6094 23.9096 42.5956C25.1875 42.267 26.3724 41.8685 27.4644 41.4007ZM58.0548 74.8574C59.8043 65.3701 55.9533 61.5865 46.5018 63.5061C44.9021 64.4297 43.8161 65.8235 43.2432 67.6881C41.9238 77.3039 45.9721 80.7894 55.3887 78.1433C56.0712 76.8594 56.9599 75.7643 58.0548 74.8574Z" fill="#4648A9"/>
</svg>
