<svg width="102" height="102" viewBox="0 0 102 102" fill="none" xmlns="http://www.w3.org/2000/svg">
<circle cx="50.8066" cy="51" r="50.5" fill="#4679A9"/>
<path fill-rule="evenodd" clip-rule="evenodd" d="M29.4892 29.6825C32.144 27.0277 36.4483 27.0277 39.1031 29.6825L50.8057 41.3852L62.5084 29.6825C65.1632 27.0277 69.4675 27.0277 72.1223 29.6825C74.7771 32.3373 74.7771 36.6416 72.1223 39.2964L60.4197 50.9991L72.1223 62.7017C74.7771 65.3566 74.7771 69.6609 72.1223 72.3157C69.4675 74.9705 65.1632 74.9705 62.5084 72.3157L50.8057 60.613L39.1031 72.3157C36.4483 74.9705 32.144 74.9705 29.4892 72.3157C26.8343 69.6609 26.8343 65.3566 29.4892 62.7017L41.1918 50.9991L29.4892 39.2964C26.8343 36.6416 26.8343 32.3373 29.4892 29.6825Z" fill="#ECF2FE"/>
</svg>
