<svg width="952" height="1715" viewBox="0 0 952 1715" fill="none" xmlns="http://www.w3.org/2000/svg">
<mask id="path-1-inside-1_76_553" fill="white">
<path d="M0 9.99997C0 4.47712 4.47715 0 10 0H942C947.523 0 952 4.47715 952 10V1705C952 1710.52 947.523 1715 942 1715H9.99999C4.47714 1715 0 1710.52 0 1705V9.99997Z"/>
</mask>
<g filter="url(#filter0_i_76_553)">
<path d="M0 9.99997C0 4.47712 4.47715 0 10 0H942C947.523 0 952 4.47715 952 10V1705C952 1710.52 947.523 1715 942 1715H9.99999C4.47714 1715 0 1710.52 0 1705V9.99997Z" fill="#89BC96"/>
<path d="M0 9.99997C0 4.47712 4.47715 0 10 0H942C947.523 0 952 4.47715 952 10V1705C952 1710.52 947.523 1715 942 1715H9.99999C4.47714 1715 0 1710.52 0 1705V9.99997Z" fill="url(#paint0_radial_76_553)" fill-opacity="0.5"/>
<path d="M0 9.99997C0 4.47712 4.47715 0 10 0H942C947.523 0 952 4.47715 952 10V1705C952 1710.52 947.523 1715 942 1715H9.99999C4.47714 1715 0 1710.52 0 1705V9.99997Z" fill="url(#paint1_radial_76_553)" fill-opacity="0.8"/>
</g>
<path d="M10 4H942V-4H10V4ZM948 10V1705H956V10H948ZM942 1711H9.99999V1719H942V1711ZM4 1705V9.99997H-4V1705H4ZM9.99999 1711C6.68628 1711 4 1708.31 4 1705H-4C-4 1712.73 2.26799 1719 9.99999 1719V1711ZM948 1705C948 1708.31 945.314 1711 942 1711V1719C949.732 1719 956 1712.73 956 1705H948ZM942 4C945.314 4 948 6.68628 948 10H956C956 2.26802 949.732 -4 942 -4V4ZM10 -4C2.26803 -4 -4 2.26796 -4 9.99997H4C4 6.68628 6.68627 4 10 4V-4Z" fill="#C4E1EB" mask="url(#path-1-inside-1_76_553)"/>
<defs>
<filter id="filter0_i_76_553" x="-5" y="0" width="957" height="1722" filterUnits="userSpaceOnUse" color-interpolation-filters="sRGB">
<feFlood flood-opacity="0" result="BackgroundImageFix"/>
<feBlend mode="normal" in="SourceGraphic" in2="BackgroundImageFix" result="shape"/>
<feColorMatrix in="SourceAlpha" type="matrix" values="0 0 0 0 0 0 0 0 0 0 0 0 0 0 0 0 0 0 127 0" result="hardAlpha"/>
<feOffset dx="-5" dy="7"/>
<feGaussianBlur stdDeviation="3.9"/>
<feComposite in2="hardAlpha" operator="arithmetic" k2="-1" k3="1"/>
<feColorMatrix type="matrix" values="0 0 0 0 0 0 0 0 0 0 0 0 0 0 0 0 0 0 0.25 0"/>
<feBlend mode="normal" in2="shape" result="effect1_innerShadow_76_553"/>
</filter>
<radialGradient id="paint0_radial_76_553" cx="0" cy="0" r="1" gradientUnits="userSpaceOnUse" gradientTransform="translate(635 -271.361) rotate(82.172) scale(1953 884.435)">
<stop stop-color="#FDFF8C"/>
<stop offset="1" stop-color="#FDFF8C" stop-opacity="0"/>
</radialGradient>
<radialGradient id="paint1_radial_76_553" cx="0" cy="0" r="1" gradientUnits="userSpaceOnUse" gradientTransform="translate(261 1595.6) rotate(-74.8062) scale(1293.47 610.68)">
<stop stop-color="#E6EDCF"/>
<stop offset="1" stop-color="#CCD5AF" stop-opacity="0"/>
</radialGradient>
</defs>
</svg>
